{"title":"Brokeback Mountain [2005] BRRip 720p x264 AAC [VX] [P2PDL]","uid":7680307,"size":914685177,"categoryP":"video","categoryS":"hd___movies","magnet":"?xt=urn:btih:17bd5328c778affe0f31520b81a2590d6a20c681&amp;dn=Brokeback+Mountain+%5B2005%5D+BRRip+720p+x264+AAC+%5BVX%5D+%5BP2PDL%5D&amp;tr=udp%3A%2F%2Ftracker.openbittorrent.com%3A80&amp;tr=udp%3A%2F%2Fopen.demonii.com%3A1337&amp;tr=udp%3A%2F%2Ftracker.coppersurfer.tk%3A6969&amp;tr=udp%3A%2F%2Fexodus.desync.com%3A6969","seeders":4,"leechers":4,"uploader":"Vitamin_X","files":-1,"time":1348803987,"description":"\nCover:  &lt;a href=&quot;\nhttp://www.shotpix.com/images/71304502124109278279.jpg&quot; rel=&quot;nofollow&quot; target=&quot;_NEW&quot;&gt;\nhttp://www.shotpix.com/images/71304502124109278279.jpg&lt;/a&gt;\n\n\nRelease Title: Brokeback Mountain (2005)\n\n\nRatings: 7.7/10 | http://www.imdb.com/title/tt0388795/\n\n\nPlot: The story of a forbidden and secretive relationship between two cowboys and their lives over the years.\n\nDirector: Ang Lee\n\nWriters: Annie Proulx, Larry McMurtry\n\nStars: Jake Gyllenhaal, Heath Ledger, Anne Hathaway and Michelle Williams.\n\n\t\t\t\t\t\n\n\nGeneral\n\nFormat                         : MPEG-4\nFile size                      : 868 MiB\nDuration                       : 2h 14mn\nOverall bit rate mode          : Variable\nOverall bit rate               : 902 Kbps\n\nSource                         : 720p-MZON3 (Thanks!)\n\n[code]Video\nID                             : 1\nFormat                         : AVC\nFormat/Info                    : Advanced Video Codec\nFormat settings, ReFrames      : 3 frames\nCodec ID                       : avc1\nCodec ID/Info                  : Advanced Video Coding\nDuration                       : 2h 14mn\nBit rate mode                  : Variable\nBit rate                       : 802 Kbps\nMaximum bit rate               : 50.0 Mbps\nWidth                          : 1 280 pixels\nHeight                         : 688 pixels\nDisplay aspect ratio           : 1.860\nFrame rate mode                : Variable\nFrame rate                     : 23.976 fps\nBit depth                      : 8 bits\nStream size                    : 771 MiB (89%)\n\n[code]Audio\nID                             : 2\nFormat                         : AAC\nFormat/Info                    : Advanced Audio Codec\nFormat profile                 : LC\nCodec ID                       : 40\nDuration                       : 2h 14mn\nBit rate mode                  : Variable\nBit rate                       : 96.0 Kbps\nMaximum bit rate               : 186 Kbps\nChannel(s)                     : 2 channels\nChannel positions              : Front: L R\nSampling rate                  : 48.0 KHz\nStream size                    : 92.2 MiB (11%)\nLanguage                       : English\n\nSubtitles                      : Yes (English)\n\n\n\n\n\n\nScreens:\n\n &lt;a href=&quot;\nhttp://www.shotpix.com/images/76193604851986889161.jpg&quot; rel=&quot;nofollow&quot; target=&quot;_NEW&quot;&gt;\nhttp://www.shotpix.com/images/76193604851986889161.jpg&lt;/a&gt; &lt;a href=&quot;\nhttp://www.shotpix.com/images/72557872261985094036.jpg&quot; rel=&quot;nofollow&quot; target=&quot;_NEW&quot;&gt;\nhttp://www.shotpix.com/images/72557872261985094036.jpg&lt;/a&gt; &lt;a href=&quot;\nhttp://www.shotpix.com/images/96685082608825518317.jpg&quot; rel=&quot;nofollow&quot; target=&quot;_NEW&quot;&gt;\nhttp://www.shotpix.com/images/96685082608825518317.jpg&lt;/a&gt; &lt;a href=&quot;\nhttp://www.shotpix.com/images/47002185736210717732.jpg&quot; rel=&quot;nofollow&quot; target=&quot;_NEW&quot;&gt;\nhttp://www.shotpix.com/images/47002185736210717732.jpg&lt;/a&gt; &lt;a href=&quot;\nhttp://www.shotpix.com/images/40772972166093892766.jpg&quot; rel=&quot;nofollow&quot; target=&quot;_NEW&quot;&gt;\nhttp://www.shotpix.com/images/40772972166093892766.jpg&lt;/a&gt;\n\n\nThumbs:\n &lt;a href=&quot;\nhttp://www.shotpix.com/images/87355949347471362347.jpg&quot; rel=&quot;nofollow&quot; target=&quot;_NEW&quot;&gt;\nhttp://www.shotpix.com/images/87355949347471362347.jpg&lt;/a&gt;\n\nSample:\n\n\n\n------------------------------------------------------------------------\n\n\nNotes:\n\n* Best played on VLC Media Player.\n* Install shark007 codecs in case of any kind of problem in playback (For non-VLC Media Player users).\n* Alternatively, install Core AVC codecs, the fastest decoder that there is coupled with Community Center Codec Pack and play on Windows Media Player Classic.\n* Read NFO\n* Help in seeding this torrent as much as you can. \n\n\n\nGreets to: VYTO, srkfan, MgB, staff members at ExtraTorrent, TPB,KAT, 1337x, PublicHD, Ahashare, SilverTorrent, TorrentMafia, P2PDL and all others\n\n\nEncoder Notes: Looking For Early Access To Anything You Can Provide DVDScr, R5, DVDRips, BluRay, Direct Audio, Early Music\nReleases, Seedboxes, Links, Dedicated Servers, Advance / Promo CDs/DVDs. If You Got anything to \noffer contact me at &quot;&lt;a class=&quot;__cf_email__&quot; href=&quot;/cdn-cgi/l/email-protection&quot; data-cfemail=&quot;a0c3cfced4c1c3d4e0d4c9ced9cd8ec5d5&quot;&gt;[email&amp;#160;protected]&lt;/a&gt;&lt;script cf-hash='f9e31' type=&quot;text/javascript&quot;&gt;\n/* &lt;![CDATA[ */!function(){try{var t=&quot;currentScript&quot;in document?document.currentScript:function(){for(var t=document.getElementsByTagName(&quot;script&quot;),e=t.length;e--;)if(t[e].getAttribute(&quot;cf-hash&quot;))return t[e]}();if(t&amp;&amp;t.previousSibling){var e,r,n,i,c=t.previousSibling,a=c.getAttribute(&quot;data-cfemail&quot;);if(a){for(e=&quot;&quot;,r=parseInt(a.substr(0,2),16),n=2;a.length-n;n+=2)i=parseInt(a.substr(n,2),16)^r,e+=String.fromCharCode(i);e=document.createTextNode(e),c.parentNode.replaceChild(e,c)}}}catch(u){}}();/* ]]&gt; */&lt;/script&gt;&quot;\n\n                                      Enjoy! ","torrent":{"xt":"urn:btih:17bd5328c778affe0f31520b81a2590d6a20c681","amp;dn":"Brokeback+Mountain+%5B2005%5D+BRRip+720p+x264+AAC+%5BVX%5D+%5BP2PDL%5D","amp;tr":["udp%3A%2F%2Ftracker.openbittorrent.com%3A80","udp%3A%2F%2Fopen.demonii.com%3A1337","udp%3A%2F%2Ftracker.coppersurfer.tk%3A6969","udp%3A%2F%2Fexodus.desync.com%3A6969"],"infoHash":"17bd5328c778affe0f31520b81a2590d6a20c681","infoHashBuffer":{"type":"Buffer","data":[23,189,83,40,199,120,175,254,15,49,82,11,129,162,89,13,106,32,198,129]},"announce":[],"urlList":[]}}